<?xml version="1.0" encoding="UTF-8"?>
<svg version="1.1" xmlns="http://www.w3.org/2000/svg" width="225" height="225">
<path d="M0 0 C19.39954929 18.29886564 32.59623482 45.77223622 33.61621094 72.45996094 C34.52701942 105.75507086 25.85228061 134.82468976 2.80444336 159.51391602 C-17.15503046 180.21581215 -44.08358999 193.22799684 -73.015625 194.03125 C-101.66013832 194.40843419 -128.36480401 188.07340146 -150.484375 168.828125 C-151.30292969 168.12945312 -152.12148437 167.43078125 -152.96484375 166.7109375 C-173.79059156 148.50022308 -188.89358783 123.03817134 -191.33935547 95.0546875 C-193.53386891 61.36114777 -185.75284315 31.75137337 -163.484375 5.828125 C-119.91411316 -43.06520051 -47.54888889 -41.56789657 0 0 Z " fill="#060606" transform="translate(191.484375,31.171875)"/>
<path d="M0 0 C2.1346875 0.0309375 2.1346875 0.0309375 4.3125 0.0625 C4.3125 3.0325 4.3125 6.0025 4.3125 9.0625 C2.3325 9.3925 0.3525 9.7225 -1.6875 10.0625 C-2.0175 11.0525 -2.3475 12.0425 -2.6875 13.0625 C4.9025 13.0625 12.4925 13.0625 20.3125 13.0625 C20.3125 20.6525 20.3125 28.2425 20.3125 36.0625 C21.6325 36.0625 22.9525 36.0625 24.3125 36.0625 C24.3125 39.0325 24.3125 42.0025 24.3125 45.0625 C18.0425 45.0625 11.7725 45.0625 5.3125 45.0625 C5.3125 42.0925 5.3125 39.1225 5.3125 36.0625 C6.6325 36.0625 7.9525 36.0625 9.3125 36.0625 C9.3125 31.1125 9.3125 26.1625 9.3125 21.0625 C5.3525 21.0625 1.3925 21.0625 -2.6875 21.0625 C-2.6875 26.0125 -2.6875 30.9625 -2.6875 36.0625 C-1.0375 36.0625 0.6125 36.0625 2.3125 36.0625 C2.3125 39.0325 2.3125 42.0025 2.3125 45.0625 C-4.2875 45.0625 -10.8875 45.0625 -17.6875 45.0625 C-17.6875 42.0925 -17.6875 39.1225 -17.6875 36.0625 C-16.3675 36.0625 -15.0475 36.0625 -13.6875 36.0625 C-13.6875 31.1125 -13.6875 26.1625 -13.6875 21.0625 C-15.0075 21.0625 -16.3275 21.0625 -17.6875 21.0625 C-17.6875 18.4225 -17.6875 15.7825 -17.6875 13.0625 C-16.3675 13.0625 -15.0475 13.0625 -13.6875 13.0625 C-13.625625 12.010625 -13.56375 10.95875 -13.5 9.875 C-12.54306063 5.38474602 -11.20829664 3.91266871 -7.6875 1.0625 C-4.80538698 0.10179566 -2.98899956 -0.04331883 0 0 Z " fill="#FFFFFF" transform="translate(43.6875,86.9375)"/>
<path d="M0 0 C3.93242139 2.0749798 6.4215106 4.11574191 7.9609375 8.28125 C8.18916766 11.65801895 8.09666018 14.88818288 7.9609375 18.28125 C1.6909375 18.28125 -4.5790625 18.28125 -11.0390625 18.28125 C-10.0490625 19.60125 -9.0590625 20.92125 -8.0390625 22.28125 C-3.07323845 22.76181362 0.43540089 22.54401831 4.9609375 20.28125 C6.5234375 23.09375 6.5234375 23.09375 7.9609375 26.28125 C6.9609375 29.28125 6.9609375 29.28125 4.0859375 30.96875 C-1.37232528 33.08017676 -7.57322659 33.41099762 -13.16015625 31.58984375 C-18.42048326 28.88614879 -21.20800973 24.7744083 -23.0390625 19.28125 C-23.62623902 13.29204945 -22.34473324 9.18643884 -19.0390625 4.28125 C-13.69583113 -0.80133594 -7.09345013 -2.50037323 0 0 Z " fill="#FEFEFE" transform="translate(126.0390625,99.71875)"/>
<path d="M0 0 C5.94 0 11.88 0 18 0 C18 2.64 18 5.28 18 8 C17.01 8 16.02 8 15 8 C16.32 11.63 17.64 15.26 19 19 C20.32 15.37 21.64 11.74 23 8 C22.34 8 21.68 8 21 8 C21 5.36 21 2.72 21 0 C26.61 0 32.22 0 38 0 C38 2.64 38 5.28 38 8 C37.38342529 8.06445312 36.76685059 8.12890625 36.1315918 8.1953125 C33.80660765 8.81027171 33.80660765 8.81027171 32.82739258 11.1171875 C32.51954834 12.02726562 32.2117041 12.93734375 31.89453125 13.875 C31.55099609 14.85984375 31.20746094 15.8446875 30.85351562 16.859375 C30.50998047 17.89578125 30.16644531 18.9321875 29.8125 20 C29.11266523 22.04234901 28.41094425 24.084053 27.70703125 26.125 C27.4025708 27.03507812 27.09811035 27.94515625 26.78442383 28.8828125 C26 31 26 31 25 32 C22.81360547 32.07258946 20.62499611 32.08373783 18.4375 32.0625 C16.64119141 32.04896484 16.64119141 32.04896484 14.80859375 32.03515625 C13.88175781 32.02355469 12.95492187 32.01195312 12 32 C11.59007813 30.75863281 11.18015625 29.51726562 10.7578125 28.23828125 C10.21362211 26.5963275 9.66934681 24.9544019 9.125 23.3125 C8.85558594 22.49587891 8.58617188 21.67925781 8.30859375 20.83789062 C6.39552127 14.8234507 6.39552127 14.8234507 4 9 C1.95894361 8.11306697 1.95894361 8.11306697 0 8 C0 5.36 0 2.72 0 0 Z " fill="#FEFEFE" transform="translate(66,100)"/>
<path d="M0 0 C0 3.63 0 7.26 0 11 C-2.97 11.66 -5.94 12.32 -9 13 C-9.33 16.63 -9.66 20.26 -10 24 C-8.68 24.33 -7.36 24.66 -6 25 C-5.95758277 27.33294775 -5.95907063 29.66702567 -6 32 C-7.5220959 33.5220959 -8.88210082 33.12959521 -11 33.1328125 C-11.804375 33.13410156 -12.60875 33.13539063 -13.4375 33.13671875 C-14.283125 33.13285156 -15.12875 33.12898438 -16 33.125 C-16.845625 33.12886719 -17.69125 33.13273437 -18.5625 33.13671875 C-19.366875 33.13542969 -20.17125 33.13414062 -21 33.1328125 C-21.7425 33.13168457 -22.485 33.13055664 -23.25 33.12939453 C-25 33 -25 33 -26 32 C-26.04092937 29.66702567 -26.04241723 27.33294775 -26 25 C-24.68 24.67 -23.36 24.34 -22 24 C-22 19.05 -22 14.1 -22 9 C-23.32 9 -24.64 9 -26 9 C-26 6.36 -26 3.72 -26 1 C-23.89695523 0.8919977 -21.79233091 0.81441013 -19.6875 0.75 C-17.92986328 0.68039063 -17.92986328 0.68039063 -16.13671875 0.609375 C-13 1 -13 1 -11.08203125 3.015625 C-10.72496094 3.67046875 -10.36789063 4.3253125 -10 5 C-9.38125 4.360625 -8.7625 3.72125 -8.125 3.0625 C-5.04667814 0.07471702 -4.4599219 0 0 0 Z " fill="#FEFEFE" transform="translate(162,99)"/>
<path d="M0 0 C0 3.63 0 7.26 0 11 C-1.27875 11.2475 -2.5575 11.495 -3.875 11.75 C-7.07909395 12.51270311 -7.07909395 12.51270311 -9.4375 14.6875 C-10.18795085 17.77268684 -10.63624794 20.84748218 -11 24 C-9.35 24.33 -7.7 24.66 -6 25 C-5.95758277 27.33294775 -5.95907063 29.66702567 -6 32 C-7 33 -7 33 -8.85766602 33.11352539 C-10.04380493 33.10567017 -10.04380493 33.10567017 -11.25390625 33.09765625 C-12.10791016 33.09443359 -12.96191406 33.09121094 -13.84179688 33.08789062 C-14.73962891 33.07951172 -15.63746094 33.07113281 -16.5625 33.0625 C-17.46419922 33.05798828 -18.36589844 33.05347656 -19.29492188 33.04882812 C-21.52997589 33.03700244 -23.76499602 33.01906638 -26 33 C-26 30.03 -26 27.06 -26 24 C-24.68 24 -23.36 24 -22 24 C-22 19.05 -22 14.1 -22 9 C-23.32 9 -24.64 9 -26 9 C-26 6.36 -26 3.72 -26 1 C-23.89646505 0.9189794 -21.79204048 0.86080093 -19.6875 0.8125 C-18.51574219 0.77769531 -17.34398437 0.74289063 -16.13671875 0.70703125 C-13 1 -13 1 -11.08203125 2.51171875 C-10.72496094 3.00285156 -10.36789063 3.49398437 -10 4 C-9.0925 3.34 -8.185 2.68 -7.25 2 C-4 0 -4 0 0 0 Z " fill="#FFFFFF" transform="translate(190,99)"/>
<path d="M0 0 C2.375 2.25 2.375 2.25 4 5 C4.08857913 8.63174437 3.25199218 9.73400825 0.75 12.375 C-2 14 -2 14 -4.625 13.9375 C-7.20394908 12.91949379 -8.39250435 12.25049391 -10 10 C-10.9375 7.625 -10.9375 7.625 -11 5 C-7.79787782 0.14160773 -5.74071865 -1.91357288 0 0 Z " fill="#FEFEFE" transform="translate(202,85)"/>
<path d="M0 0 C2.3125 1.25 2.3125 1.25 3.3125 2.25 C3.60681219 5.0459658 3.65022308 6.68712819 2.1875 9.125 C0.3125 10.25 0.3125 10.25 -2.8125 10 C-5.6875 9.25 -5.6875 9.25 -6.6875 8.25 C-7 5.375 -7 5.375 -6.6875 2.25 C-4.35550923 -0.51384091 -3.52665203 -0.98418196 0 0 Z " fill="#FFFFFF" transform="translate(60.6875,86.75)"/>
<path d="M0 0 C1.2375 0.1546875 1.2375 0.1546875 2.5 0.3125 C4.5 3.3125 4.5 3.3125 4.1875 5.9375 C3.5 8.3125 3.5 8.3125 2.5 9.3125 C0.0625 9.5 0.0625 9.5 -2.5 9.3125 C-4.5 7.3125 -4.5 7.3125 -4.75 4.8125 C-4.40047575 1.3172575 -3.47557682 0.4344471 0 0 Z " fill="#757575" transform="translate(198.5,86.6875)"/>
<path d="M0 0 C2.6875 0.3125 2.6875 0.3125 5 1 C5 1.66 5 2.32 5 3 C2.36 3 -0.28 3 -3 3 C-1.8125 1.4375 -1.8125 1.4375 0 0 Z " fill="#040404" transform="translate(118,108)"/>
</svg>
