<?xml version="1.0" encoding="UTF-8"?>
<svg version="1.1" xmlns="http://www.w3.org/2000/svg" width="736" height="736">
<path d="M0 0 C242.88 0 485.76 0 736 0 C736 242.88 736 485.76 736 736 C493.12 736 250.24 736 0 736 C0 493.12 0 250.24 0 0 Z " fill="#000000" transform="translate(0,0)"/>
<path d="M0 0 C0.71098846 -0.00172211 1.42197693 -0.00344421 2.1545105 -0.00521851 C12.11853851 -0.00248655 21.70900732 0.80000602 31.5625 2.375 C32.42045166 2.51019043 33.27840332 2.64538086 34.16235352 2.78466797 C67.59879478 8.42822501 98.40457202 24.75242777 122.5625 48.375 C123.54319166 49.29542203 124.52497712 50.21467991 125.5078125 51.1328125 C148.80075122 73.22626198 164.73251751 103.25071417 171.75 134.4375 C172.00974609 135.54416016 172.26949219 136.65082031 172.53710938 137.79101562 C182.53895846 181.5458748 172.63342825 229.22058053 149.1015625 267.03515625 C136.98715875 285.45273962 122.2664291 301.27926493 104.5625 314.375 C103.99321777 314.7992627 103.42393555 315.22352539 102.83740234 315.66064453 C89.29130991 325.61311382 67.08129182 340.7504294 49.5625 338.375 C46.96311273 335.82596009 45.69710099 334.15085482 45.07043457 330.53868103 C45.07361694 329.5023201 45.07679932 328.46595917 45.08007812 327.39819336 C45.07327026 326.21603745 45.0664624 325.03388153 45.05944824 323.81590271 C45.07076782 322.54505325 45.0820874 321.2742038 45.09375 319.96484375 C45.08297478 317.94963881 45.07217677 315.93443372 45.06009674 313.91923618 C45.04109826 309.67443493 45.05745922 305.42962639 45.06756592 301.18481445 C45.07584321 297.02361474 45.06751633 292.8630479 45.03843689 288.70193672 C45.03145018 286.77019031 45.04815209 284.8384037 45.06555176 282.90672302 C45.00121674 271.52670601 42.54172163 262.31721537 35.734375 253.1171875 C34.5625 251.375 34.5625 251.375 34.5625 249.375 C35.39910156 249.27703125 36.23570312 249.1790625 37.09765625 249.078125 C54.38687576 246.85713999 71.3742172 242.57567844 85.4765625 231.890625 C87.5625 230.375 87.5625 230.375 89.7109375 229.421875 C92.07661977 228.08431625 92.46390054 226.8243365 93.5625 224.375 C94.6209991 223.02186713 95.70682062 221.68986197 96.8125 220.375 C104.676912 210.31967073 107.87772434 199.6010553 110.5625 187.375 C110.7375708 186.78428711 110.9126416 186.19357422 111.09301758 185.58496094 C115.18732545 166.31211911 112.34814207 143.97493665 101.875 127.5 C99.94586243 124.59698658 98.03671418 121.84921418 95.5625 119.375 C95.55078125 117.31640625 95.55078125 117.31640625 95.875 114.9375 C96.02388672 113.76380859 96.02388672 113.76380859 96.17578125 112.56640625 C96.5625 110.375 96.5625 110.375 97.5625 107.375 C98.3435695 94.74984375 97.04309612 83.51047129 93.5625 71.375 C78.57692503 72.88029764 61.25068816 77.91916454 49.56640625 88.1171875 C46.49359222 90.04593237 44.13455809 89.67174418 40.5625 89.375 C38.59220284 88.92047213 36.6223879 88.46163037 34.66577148 87.95141602 C15.6399004 83.16402588 -18.33730645 80.32490322 -36.4375 89.375 C-42.14899342 90.07522741 -45.43211299 88.0557203 -50.125 85.1875 C-51.54766571 84.35496625 -52.97215244 83.52553655 -54.3984375 82.69921875 C-55.08905273 82.29751465 -55.77966797 81.89581055 -56.49121094 81.48193359 C-66.86648273 75.58109537 -77.57125824 72.34764277 -89.4375 71.375 C-89.57027344 72.22191406 -89.70304687 73.06882812 -89.83984375 73.94140625 C-90.23465299 76.20962405 -90.68445606 78.46902813 -91.19140625 80.71484375 C-93.78236028 92.24271168 -94.78922517 102.83758747 -91.4375 114.375 C-90.97530691 117.77796014 -91.16878845 118.94692849 -93.01171875 121.8828125 C-93.70910156 122.74648438 -94.40648437 123.61015625 -95.125 124.5 C-104.82440302 137.30115557 -108.0129799 151.18495601 -107.875 167.0625 C-107.86742676 168.29057373 -107.85985352 169.51864746 -107.85205078 170.78393555 C-107.67659479 180.51021675 -106.52265014 189.16745564 -103.4375 198.375 C-103.22319336 199.02742676 -103.00888672 199.67985352 -102.78808594 200.35205078 C-99.74580011 209.40141191 -95.60309676 217.0563881 -89.4375 224.375 C-88.90640625 225.01824219 -88.3753125 225.66148437 -87.828125 226.32421875 C-75.63640118 239.75322147 -57.535378 244.80633742 -40.4375 248.375 C-39.34566406 248.60316406 -38.25382813 248.83132813 -37.12890625 249.06640625 C-34.90096894 249.5183141 -32.67213777 249.9577212 -30.4375 250.375 C-31.035625 251.40625 -31.63375 252.4375 -32.25 253.5 C-35.06550118 258.46678201 -37.35366824 262.98465809 -38.6875 268.5625 C-39.81824919 272.47032233 -40.0173345 273.11136675 -43.625 275.375 C-44.883125 275.705 -46.14125 276.035 -47.4375 276.375 C-48.654375 276.766875 -49.87125 277.15875 -51.125 277.5625 C-60.29373267 279.63743563 -69.25941958 279.20571203 -77.4375 274.375 C-83.48896546 270.0351546 -87.84915133 265.03206385 -91.875 258.8125 C-96.85680099 251.28248575 -102.70612511 246.3328103 -111.0625 242.875 C-115.2236667 242.25853086 -119.2408446 242.20370794 -123.4375 242.375 C-123.7675 243.695 -124.0975 245.015 -124.4375 246.375 C-123.4475 247.220625 -122.4575 248.06625 -121.4375 248.9375 C-120.798125 249.49050781 -120.15875 250.04351562 -119.5 250.61328125 C-118.16261969 251.75562693 -116.8090967 252.87944093 -115.4375 253.98046875 C-108.15011903 259.97263162 -103.51502528 266.96171686 -99.50854492 275.43261719 C-93.89433493 287.28891541 -87.80176257 292.5411526 -75.4375 297.375 C-72.47454194 298.36265269 -70.52014448 298.50389841 -67.4296875 298.5078125 C-65.94855469 298.50974609 -65.94855469 298.50974609 -64.4375 298.51171875 C-63.40625 298.50785156 -62.375 298.50398438 -61.3125 298.5 C-60.30445313 298.50386719 -59.29640625 298.50773437 -58.2578125 298.51171875 C-52.23565496 298.50391803 -46.40900485 298.15713057 -40.4375 297.375 C-40.38800647 302.28628067 -40.35173618 307.19741566 -40.32763672 312.10888672 C-40.3175885 313.77915985 -40.30394764 315.44941542 -40.28662109 317.11962891 C-40.26232074 319.52250504 -40.25100513 321.92514827 -40.2421875 324.328125 C-40.23186493 325.07306213 -40.22154236 325.81799927 -40.21090698 326.58551025 C-40.20945886 333.2999885 -40.20945886 333.2999885 -42.4375 336.375 C-46.28334756 338.93889837 -48.99976739 339.00699907 -53.4375 338.375 C-75.49996855 332.7850484 -95.28422809 318.75186091 -112.4375 304.375 C-113.30890625 303.68148438 -114.1803125 302.98796875 -115.078125 302.2734375 C-121.99255279 296.70984163 -121.99255279 296.70984163 -123.4375 292.375 C-124.0975 292.375 -124.7575 292.375 -125.4375 292.375 C-140.93551924 276.00855727 -151.84405506 256.01262553 -160.4375 235.375 C-160.95441406 234.23804688 -161.47132813 233.10109375 -162.00390625 231.9296875 C-163.58494721 228.00939519 -164.58944362 224.17860547 -165.5 220.0625 C-165.67063965 219.31266846 -165.8412793 218.56283691 -166.01708984 217.7902832 C-167.24924315 212.33520449 -168.41373179 206.87311267 -169.4375 201.375 C-169.60644775 200.52446045 -169.77539551 199.6739209 -169.94946289 198.79760742 C-171.42950783 190.82829406 -171.78668387 183.09508302 -171.75 175 C-171.74154053 173.02978882 -171.74154053 173.02978882 -171.73291016 171.01977539 C-171.36886014 133.73101632 -159.20619965 96.43004924 -135.4375 67.375 C-135.01887695 66.85631348 -134.60025391 66.33762695 -134.16894531 65.80322266 C-112.90106389 39.52974275 -84.56966535 17.29767139 -51.4921875 8.2265625 C-49.00257051 7.53252605 -46.60040066 6.75349749 -44.16015625 5.91015625 C-29.73122191 1.07850395 -15.10563924 -0.00931284 0 0 Z " fill="#FDFDFD" transform="translate(365.4375,198.625)"/>
<path d="M0 0 C0.33 0 0.66 0 1 0 C1.20086443 3.71599191 1.1519437 4.77208445 -1 8 C-1.70812814 10.32108669 -2.38024152 12.65377147 -3 15 C-4.65 15 -6.3 15 -8 15 C-9 12 -9 12 -8 9 C-8.99 8.34 -9.98 7.68 -11 7 C-10.28972656 6.82984375 -9.57945312 6.6596875 -8.84765625 6.484375 C-7.92855469 6.24203125 -7.00945312 5.9996875 -6.0625 5.75 C-5.14597656 5.51796875 -4.22945313 5.2859375 -3.28515625 5.046875 C-0.80848559 4.23367434 -0.80848559 4.23367434 -0.18359375 1.890625 C-0.12300781 1.26671875 -0.06242187 0.6428125 0 0 Z " fill="#292929" transform="translate(325,468)"/>
<path d="M0 0 C1.65 0.33 3.3 0.66 5 1 C5.33 2.32 5.66 3.64 6 5 C3.625 5.625 3.625 5.625 1 6 C0.34 5.34 -0.32 4.68 -1 4 C-0.625 1.875 -0.625 1.875 0 0 Z " fill="#D7D7D7" transform="translate(290,477)"/>
<path d="M0 0 C1.2065625 0.0309375 1.2065625 0.0309375 2.4375 0.0625 C3 2 3 2 3.4375 4.0625 C2.4375 5.0625 2.4375 5.0625 -0.125 5.125 C-1.3315625 5.0940625 -1.3315625 5.0940625 -2.5625 5.0625 C-3.125 3.125 -3.125 3.125 -3.5625 1.0625 C-2.5625 0.0625 -2.5625 0.0625 0 0 Z " fill="#DFDFDF" transform="translate(306.5625,479.9375)"/>
<path d="M0 0 C1.98 0 3.96 0 6 0 C5.67 1.65 5.34 3.3 5 5 C3.35 5 1.7 5 0 5 C-0.33 4.01 -0.66 3.02 -1 2 C-0.67 1.34 -0.34 0.68 0 0 Z " fill="#E4E4E4" transform="translate(317,478)"/>
<path d="M0 0 C2.97 0.495 2.97 0.495 6 1 C6 2.65 6 4.3 6 6 C4.35 5.67 2.7 5.34 1 5 C0.67 3.35 0.34 1.7 0 0 Z " fill="#E1E1E1" transform="translate(277,470)"/>
<path d="M0 0 C2.475 0.495 2.475 0.495 5 1 C5 2.65 5 4.3 5 6 C3.68 5.67 2.36 5.34 1 5 C0.67 3.35 0.34 1.7 0 0 Z " fill="#E5E5E5" transform="translate(269,460)"/>
<path d="M0 0 C1.98 1.32 3.96 2.64 6 4 C4.68 5.32 3.36 6.64 2 8 C2 6.68 2 5.36 2 4 C0.35 3.67 -1.3 3.34 -3 3 C-2.01 2.01 -1.02 1.02 0 0 Z " fill="#2B2B2B" transform="translate(281,467)"/>
<path d="M0 0 C3.875 4.75 3.875 4.75 5 7 C4.34 7 3.68 7 3 7 C2.34 7.66 1.68 8.32 1 9 C0.896875 8.38125 0.79375 7.7625 0.6875 7.125 C0.12474627 4.63473516 0.12474627 4.63473516 -3 3 C-2.01 3 -1.02 3 0 3 C0 2.01 0 1.02 0 0 Z " fill="#292929" transform="translate(273,456)"/>
<path d="M0 0 C2.475 0.495 2.475 0.495 5 1 C5 2.32 5 3.64 5 5 C3.68 4.67 2.36 4.34 1 4 C0.67 2.68 0.34 1.36 0 0 Z " fill="#E0E0E0" transform="translate(262,451)"/>
<path d="M0 0 C1.32 1.32 2.64 2.64 4 4 C2.68 4.99 1.36 5.98 0 7 C0 5.68 0 4.36 0 3 C-0.66 2.67 -1.32 2.34 -2 2 C-1.34 1.34 -0.68 0.68 0 0 Z " fill="#282828" transform="translate(267,449)"/>
</svg>
